<?xml version="1.0" standalone="no"?>
<!DOCTYPE svg PUBLIC "-//W3C//DTD SVG 20010904//EN"
 "http://www.w3.org/TR/2001/REC-SVG-20010904/DTD/svg10.dtd">
<svg version="1.0" xmlns="http://www.w3.org/2000/svg"
 width="326.000000pt" height="326.000000pt" viewBox="0 0 326.000000 326.000000"
 preserveAspectRatio="xMidYMid meet">
<metadata>
Created by potrace 1.11, written by Peter Selinger 2001-2013
</metadata>
<g transform="translate(0.000000,326.000000) scale(0.100000,-0.100000)"
fill="#000000" stroke="none">
<path d="M1319 3105 c-3 -2 -22 -6 -44 -9 -71 -9 -143 -25 -207 -46 -68 -22
-187 -69 -203 -81 -5 -4 -32 -19 -60 -34 -57 -31 -163 -105 -199 -138 -13 -12
-37 -34 -52 -48 -82 -74 -166 -176 -231 -279 -113 -181 -177 -359 -211 -585
-4 -27 -7 -428 -7 -889 l0 -840 60 2 c32 0 65 -4 71 -9 13 -11 1720 -8 1764 3
14 4 41 9 61 12 20 3 48 10 63 16 15 5 37 12 50 14 25 4 150 51 179 67 9 5 25
13 35 18 142 76 240 147 343 250 148 149 225 263 317 471 33 75 71 208 91 325
18 102 19 171 20 948 l1 837 -919 0 c-505 -1 -920 -3 -922 -5z"/>
</g>
</svg>
